<?xml version="1.0" encoding="UTF-8"?>
<svg id="Layer_1" xmlns="http://www.w3.org/2000/svg" version="1.1" viewBox="0 0 792 792">
  <!-- Generator: Adobe Illustrator 29.0.1, SVG Export Plug-In . SVG Version: 2.1.0 Build 192)  -->
  <defs>
    <style>
      .st0 {
        letter-spacing: 0em;
      }

      .st0, .st1 {
        fill: #4a9c2d;
      }

      .st2 {
        fill: #dd6d3c;
      }

      .st3 {
        font-family: LemonMilk, Lemon/Milk;
        font-size: 100px;
      }

      .st4 {
        fill: #ff8e53;
      }
    </style>
  </defs>
  <g>
    <path class="st4" d="M288.2,406.5c-3.1,0-4.1.7-4.1-2.5-.4-102.2,105-136.3,188.7-105,37.9,14.2,74,52.4,115.4,23.5,4.4-3.1,5.6-10.3,9.5-6-2.1,1-2,7.7-.3,11.7,12.2,28.8,47.5,33,27.8,71.2-24.3,47-134.7,93.6-184,115.7-41.3,18.5-82,34.8-128.2,35.1,4-10.1,37.4-13.2,47.9-16.5,47.9-14.9,93.2-42.7,125.4-81.4,11.3-13.6,20.9-34.7,32.5-46,8.4-8.2,16.1-9,23.9-14.6,8.5-6.1,3.7-10.3-5-9-5.2.8-13.3,2-21.9,11.3l-13.8,14.9c1.7-6.3-5.2-16.7-9.8-21.5-23.5-24.3-60.2-44.9-94.3-46.1-5.8-4.5-37.4-16.9-39-7.5-.3,1.8,27,13.5,32.5,18.4,31.3,28.2,23.7,80-9.2,103.7-58.8,42.6-135.9-14.2-178.1,11.7-14.1,8.7-30.6,28.4-44,39.4l-3,2c-21,16.9-48.5,34-75.2,40.2-9.7,2.3-27.8,7-29.7-6.3s4-10,4-10c11-11.9,28.4-13.1,42.9-19.5,27.8-12.4,43.9-33.2,65-53.4s19.3-21,27-27c5.3-4.1,8.4-6.2,15-7,31-3.5,58.9,11.8,87-12.2,2.6-2.5,1.6-1.3,3.9-3.8,9.4-10.6,11.4-21.1,12-36s2.4-28.3-6.5-19-8.6,28.2-10.5,38c-2.3,11.8-1.9,13.3-3.7,13.1ZM154.4,503.7c25.1-20.1,48.3-50.7,83-49.3,48.7,1.9,121,36.9,157.8-20.1,2-3.1,16.4-39,7.6-34.9s-8,17.9-10.2,21.3c-37.4,57.3-108.9,24.5-161.1,25.6-40.7.9-85.1,69.4-139.4,85.5-3.6,1.1-41.2,6.1-36,13.5s56-11.9,64.3-16.2c13.5-7,22.8-16.4,34-25.4Z"/>
    <path class="st4" d="M697.5,247.5c3.5,2.1,49,43,52.5,46.9,18.3,20.9-23-1.3-13.6,15.3,2.8,5,11.1,1.9,10.9,8.1-.9,34-91.9,37.4-114.8,24.1-28.1-16.3-20.8-37.1-34.1-57.8s-116.9-40.4-148.7-51.6c-3.9-1.4-16.9-7.5-18-8-17.7-8.4-100.7-46.8-37.4-51.9,49-3.9,108.6,10.8,152.3,32.4,14.3,7.1,56.3,36.1,67.4,37.5,16.8,2,53.2-12.8,83.4,5ZM584.6,253.5c-.3-1-1.3-1.4-2-2-29.5-27.7-136.5-62.3-176.8-62.9-2.1,0-6.4-.4-8,0s-4.7,3.6-3.1,6.5c5.5,10.2,66,33.5,79.2,37.7,28.6,9.1,106.2,21.4,124.1,40.7s11.1,32.7,19.1,45.8c20,32.8,64.6,26.9,96.5,19.8,11.5-2.6,21.4-5.5,26.8-17.2-31.5,7.9-84.5,23.5-110.4-3.5s-18.2-58.1-45.4-65ZM641.6,276.5c.7.6,15.8,0,18.5,0s2.4,19.4,19,19,7.5-3,9.9-2.8,7.9,7.4,13.1,7.6c11.1.4-1.1-11.6-3-15.8-4.2-9.7-2.3-17.9-14.7-23.3-16.4-7.1-47.5,11.4-42.8,15.3Z"/>
    <path class="st2" d="M597.6,316.4c28,31.4,16,39.9,67.9,45l-22.1,38.3c-26.9,40.6-52.9,59-96.5,79.3-66.2,30.8-131,55.1-201.2,74.6-1.2.3-6.6,1.5-5.8,3.7-7.1.3-31.4,4-27-7,46.2-.3,87-16.6,128.2-35.1,49.3-22.1,159.7-68.7,184-115.7,19.8-38.3-15.5-42.4-27.8-71.2-1.7-4-3.6-10.7.3-11.7Z"/>
    <path class="st2" d="M503.7,406.3c-.5,2-18.5,26.6-19,28-7.8,2.2-15.3-11.7-21.8-17-12.8-10.3-20.6-12.6-35.1-20.5-2.1-1.1-2.5-1.1-4-1.5-3.1-19.3-9.6-41.2-26-53.9,34.1,1.1,70.8,21.8,94.3,46.1s13.3,12.6,11.6,18.9Z"/>
    <path class="st2" d="M621.6,225.5c0,.5,1.6,2.6,1,4s-2.7-.2-3,0c-3.4,0-6.4.3-9.7-.8-8.4-2.6-37.6-23.7-49.2-29.7-44.5-23.2-93.1-38-143.7-39.1-14.3-15.7,17.6-12.9,26.3-12.3,65,4.5,128.7,37.6,178.3,77.9Z"/>
    <path class="st4" d="M665.5,361.4c2.6,0,2.3,0,5,0-23.1,45.5-44.8,81.4-90.6,107.7-45.9,26.4-190.2,86-240.1,88.1-.8-2.1,4.6-3.3,5.8-3.7,70.2-19.5,134.9-43.7,201.2-74.6,43.6-20.3,69.7-38.7,96.5-79.3l22.1-38.3Z"/>
    <path class="st4" d="M279.9,357.4c-9.5,1.1-21.4-4-26.4-12-2.3-3.7-3.8-18.5-7.8-9.7-8,17.4,11.3,40.4,29.3,38.8-1.6,5.6,1.1,5.8-5.6,5.1-42.2-4.2-39.1-71.9,6.1-66.1s20.5,8.6,20.5,13.5-13.6,23.8-16,30.5Z"/>
    <path class="st2" d="M279.9,357.4c-1.9,5.4-3.4,11.4-5,17-18,1.6-37.2-21.4-29.3-38.8,4-8.8,5.5,6,7.8,9.7,5.1,8,16.9,13.2,26.4,12Z"/>
    <path class="st4" d="M423.8,395.3c1.6.3,1.7.3,4,1.5,14.2,7,22.4,10.2,35.1,20.5,6.5,5.3,22,16,21.8,17-.8,2.3-3.2,10.1-7,8.6-1.9-.7-21.9-23.8-28.6-28.4-5.5-3.7-24.4-10.1-25.2-11.3s.2-5.9-.1-7.9Z"/>
    <path class="st2" d="M154.4,503.7c-11.2,9-20.5,18.4-34,25.4s-59,23.5-64.3,16.2,32.3-12.4,36-13.5c54.3-16.1,98.7-84.6,139.4-85.5,52.3-1.1,123.7,31.7,161.1-25.6s9.1-20.8,10.2-21.3c8.9-4.1-5.6,31.8-7.6,34.9-36.8,56.9-109.1,22-157.8,20.1-34.7-1.4-57.9,29.2-83,49.3Z"/>
    <path class="st2" d="M291.9,393.3c1.8-11.7,3.7-30.9,10.5-38s6.8,12.6,6.5,19c-5.1,6.6-7.7,16.4-17,19Z"/>
    <path class="st2" d="M397.8,188.5c-1.1,3.4,1.3,5.1,5,7.2,15.9,9,69,18,91.4,25.8,23.7,8.2,46.9,20.5,70.4,28s14.3,3.6,20,4c28,2.2,30.9,49.9,45.4,65,25.9,26.9,78.9,11.4,110.4,3.5-5.4,11.7-15.3,14.6-26.8,17.2-31.9,7.1-76.5,13-96.5-19.8-8-13.1-8.9-34.8-19.1-45.8-17.9-19.3-95.5-31.6-124.1-40.7-13.2-4.2-73.7-27.6-79.2-37.7-1.6-2.9,1-6,3.1-6.5Z"/>
    <path class="st2" d="M674.8,270.7c5.6-5.6,12.7,4.4,7.4,8.8s-11.6-4.6-7.4-8.8Z"/>
  </g>
  <path class="st1" d="M682,362.7c-11.1,116.1-108.9,206.9-228,206.9s-45.9-3.5-67.1-10c-6.3,2.4-12.8,4.5-19.4,6,27.6,10.6,56.6,16,86.5,16s64.1-6.4,93.8-18.9c28.7-12.1,54.5-29.5,76.6-51.7,22.1-22.1,39.5-47.9,51.7-76.6,9.7-23,15.7-47.1,17.9-71.8-4,.2-8,.2-12.1.1Z"/>
  <path class="st1" d="M624.4,170.2c-22.1-22.1-47.9-39.5-76.6-51.7-29.7-12.6-61.3-18.9-93.8-18.9s-64.1,6.4-93.8,18.9c-28.7,12.1-54.5,29.5-76.6,51.7-13.6,13.6-25.3,28.5-35.2,44.6h-62.1c-3,0-5.5,2.5-5.5,5.5s2.5,5.5,5.5,5.5h71c.7-3.5,5.3-11,5.3-11,41-62.2,111.4-103.2,191.4-103.2s158.6,46,198.2,114.3c4.6,0,9.1-.2,13.7-.2-11-20.3-24.9-38.9-41.5-55.4Z"/>
  <path class="st1" d="M213,340.6c0,24.9,3.8,49.3,11.2,72.7,4.2,0,8.4,0,12.7.1-7.7-22.9-11.8-47.3-11.8-72.8s1.1-25.3,3.1-37.4h-12.2c-1.9,12.3-2.9,24.8-2.9,37.4Z"/>
  <path class="st1" d="M443.7,445.3q-2.1,2.7-6,7c-6.4,7.2-18,16.9-21,19-12.6,8.8-18.8,12.9-34,18-6.9,2.3-23.4,1.8-25.3,1.8h-138.3c-3,0-5.5,2.5-5.5,5.5s2.5,5.5,5.5,5.5h138.3c15.1-.2,22.7,1.8,45.3-8.8s37.9-31.3,44.8-42.6c8.3-13.9,10.4-22.4-3.8-5.3Z"/>
  <path class="st1" d="M291.1,236.8H120.5c-3,0-5.5,2.5-5.5,5.5s2.5,5.5,5.5,5.5h170.6c3,0,5.5-2.5,5.5-5.5s-2.5-5.5-5.5-5.5Z"/>
  <path class="st1" d="M376.5,236.8h-61c-3,0-5.5,2.5-5.5,5.5s2.5,5.5,5.5,5.5h61c3,0,5.5-2.5,5.5-5.5s-2.5-5.5-5.5-5.5Z"/>
  <path class="st1" d="M338.8,259h-172.9c-3,0-5.5,2.5-5.5,5.5s2.5,5.5,5.5,5.5h172.9c3,0,5.5-2.5,5.5-5.5s-2.5-5.5-5.5-5.5Z"/>
  <path class="st1" d="M412.9,259h-26.4,4.6-26.5c-3,0-5.5,2.5-5.5,5.5s2.5,5.5,5.5,5.5h26.4-4.6,26.5c3,0,5.5-2.5,5.5-5.5s-2.5-5.5-5.5-5.5Z"/>
  <path class="st1" d="M143.9,259h-26.4.6-26.5c-3,0-5.5,2.5-5.5,5.5s2.5,5.5,5.5,5.5h26.4-.6,26.5c3,0,5.5-2.5,5.5-5.5s-2.5-5.5-5.5-5.5Z"/>
  <path class="st1" d="M263.7,281.1h-121c-3,0-5.5,2.5-5.5,5.5s2.5,5.5,5.5,5.5h121c3,0,5.5-2.5,5.5-5.5s-2.5-5.5-5.5-5.5Z"/>
  <path class="st1" d="M300.8,281.1h-26.4,39.4-26.5c-3,0-5.5,2.5-5.5,5.5s2.5,5.5,5.5,5.5h26.4-39.4,26.5c3,0,5.5-2.5,5.5-5.5s-2.5-5.5-5.5-5.5Z"/>
  <path class="st1" d="M251.5,469.1h-5.1,4.6-19.4c-3,0-5.5,2.5-5.5,5.5s2.5,5.5,5.5,5.5h19.3-4.6,5.3c3,0,5.5-2.5,5.5-5.5s-2.5-5.5-5.5-5.5Z"/>
  <path class="st1" d="M342.9,513h-39.7,4.6l-19.4.4c-3,0-5.5,2.5-5.5,5.5s2.5,5.5,5.5,5.5l19.3-.4h-4.6,39.8c3,0,5.5-2.5,5.5-5.5s-2.5-5.5-5.5-5.5Z"/>
  <path class="st1" d="M261.4,513h-39.7,4.6l-35.4.4c-3,0-5.5,2.5-5.5,5.5s2.5,5.5,5.5,5.5l35.3-.4h-4.6,39.8c3,0,5.5-2.5,5.5-5.5s-2.5-5.5-5.5-5.5Z"/>
  <path class="st1" d="M299,535.2h-32.6,4.6-29.6c-3,0-5.5,2.5-5.5,5.5s2.5,5.5,5.5,5.5h29.5-4.6,32.7c3,0,5.5-2.5,5.5-5.5s-2.5-5.5-5.5-5.5Z"/>
  <path class="st1" d="M221.6,391.1h-22.5,11.7-16.8c-3,0-5.5,2.5-5.5,5.5s2.5,5.5,5.5,5.5h16.6-11.7,22.7c3,0,5.5-2.5,5.5-5.5s-2.5-5.5-5.5-5.5Z"/>
  <path class="st1" d="M201.7,369.2h-50.8,45.8-50.9c-3,0-5.5,2.5-5.5,5.5s2.5,5.5,5.5,5.5h50.8-45.8,50.9c3,0,5.5-2.5,5.5-5.5s-2.5-5.5-5.5-5.5Z"/>
  <path class="st1" d="M213.8,347.3h-9.6,4.6-30.2c-3,0-5.5,2.5-5.5,5.5s2.5,5.5,5.5,5.5h30.1-4.6,9.7c3,0,5.5-2.5,5.5-5.5s-2.5-5.5-5.5-5.5Z"/>
  <path class="st1" d="M156.6,347.3h-9.6,4.6-61.3c-3,0-5.5,2.5-5.5,5.5s2.5,5.5,5.5,5.5h61.1-4.6,9.7c3,0,5.5-2.5,5.5-5.5s-2.5-5.5-5.5-5.5Z"/>
  <path class="st1" d="M198.9,325.3h-72.3,67.4-72.5c-3,0-5.5,2.5-5.5,5.5s2.5,5.5,5.5,5.5h72.3-67.4,72.5c3,0,5.5-2.5,5.5-5.5s-2.5-5.5-5.5-5.5Z"/>
  <path class="st1" d="M217.8,303.2h-21.4,16.5-21.6c-3,0-5.5,2.5-5.5,5.5s2.5,5.5,5.5,5.5h21.4-16.5,21.6c3,0,5.5-2.5,5.5-5.5s-2.5-5.5-5.5-5.5Z"/>
  <path class="st1" d="M169.3,303.2h-5.9,1-6.1c-3,0-5.5,2.5-5.5,5.5s2.5,5.5,5.5,5.5h5.9-1,6.1c3,0,5.5-2.5,5.5-5.5s-2.5-5.5-5.5-5.5Z"/>
  <path class="st1" d="M241.8,192.8h-28.4,23.5-28.5c-3,0-5.5,2.5-5.5,5.5s2.5,5.5,5.5,5.5h28.4-23.5,28.5c3,0,5.5-2.5,5.5-5.5s-2.5-5.5-5.5-5.5Z"/>
  <path class="st1" d="M284.6,170.7h-42.1,37.2-42.2c-3,0-5.5,2.5-5.5,5.5s2.5,5.5,5.5,5.5h42.1-37.2,42.2c3,0,5.5-2.5,5.5-5.5s-2.5-5.5-5.5-5.5Z"/>
</svg>